<?xml version="1.0" encoding="UTF-8" standalone="no"?>
<!-- Created with Inkscape (http://www.inkscape.org/) -->

<svg
   xmlns:dc="http://purl.org/dc/elements/1.1/"
   xmlns:cc="http://creativecommons.org/ns#"
   xmlns:rdf="http://www.w3.org/1999/02/22-rdf-syntax-ns#"
   xmlns:svg="http://www.w3.org/2000/svg"
   xmlns="http://www.w3.org/2000/svg"
   xmlns:sodipodi="http://sodipodi.sourceforge.net/DTD/sodipodi-0.dtd"
   xmlns:inkscape="http://www.inkscape.org/namespaces/inkscape"
   width="744.09448"
   height="217.40782"
   viewBox="0 0 744.09449 217.40782"
   id="svg6127"
   version="1.1"
   inkscape:version="0.92.1 r15371"
   sodipodi:docname="logo.svg">
  <defs
     id="defs6129" />
  <sodipodi:namedview
     id="base"
     pagecolor="#ffffff"
     bordercolor="#666666"
     borderopacity="1.0"
     inkscape:pageopacity="0.0"
     inkscape:pageshadow="2"
     inkscape:zoom="0.7"
     inkscape:cx="419.6394"
     inkscape:cy="111.30344"
     inkscape:document-units="px"
     inkscape:current-layer="layer1"
     showgrid="false"
     inkscape:snap-bbox="true"
     inkscape:snap-page="true"
     inkscape:bbox-nodes="true"
     units="px"
     fit-margin-top="0"
     fit-margin-left="0"
     fit-margin-right="0"
     fit-margin-bottom="0"
     inkscape:window-width="2558"
     inkscape:window-height="1059"
     inkscape:window-x="0"
     inkscape:window-y="19"
     inkscape:window-maximized="1" />
  <metadata
     id="metadata6132">
    <rdf:RDF>
      <cc:Work
         rdf:about="">
        <dc:format>image/svg+xml</dc:format>
        <dc:type
           rdf:resource="http://purl.org/dc/dcmitype/StillImage" />
        <dc:title></dc:title>
      </cc:Work>
    </rdf:RDF>
  </metadata>
  <g
     inkscape:label="Layer 1"
     inkscape:groupmode="layer"
     id="layer1"
     transform="translate(-2.4207978e-8,1.1178199e-6)">
    <path
       style="fill:#42ad52;stroke-width:2.02805805"
       inkscape:connector-curvature="0"
       id="path4314"
       d="m 108.70391,9.9374831 c 54.55477,0 98.76643,44.2116639 98.76643,98.7664269 0,54.55476 -44.21166,98.76642 -98.76643,98.76642 -54.554761,0 -98.7664258,-44.21166 -98.7664258,-98.76642 0,-54.554763 44.2116648,-98.7664269 98.7664258,-98.7664269 m 0,-9.9374842178199 C 48.876198,-1.1178199e-6 2.4207978e-8,48.673391 2.4207978e-8,108.70391 2.4207978e-8,168.53162 48.673392,217.40782 108.70391,217.40782 c 60.03052,0 108.70392,-48.6734 108.70392,-108.70391 C 217.20502,48.876197 168.53163,-1.1178199e-6 108.70391,-1.1178199e-6 Z"
       class="st0" />
    <path
       style="fill:#42ad52;stroke-width:2.02805805"
       inkscape:connector-curvature="0"
       id="path4316"
       d="m 178.67192,64.695049 c 0,0 0,0 0,0 l -66.52031,-38.330296 -3.4477,-2.028058 v 0 l -3.04209,1.825252 -21.294607,12.168348 10.748707,6.084174 c 3.244893,-0.811223 6.8954,-1.216835 10.5459,-1.419641 0.40561,0 0.60842,0 1.01403,0 0.60842,0 1.41964,0 2.02806,0 1.21683,0 2.23086,0.202806 3.4477,0.202806 15.41324,1.825252 27.17598,10.748708 27.17598,21.497415 0,10.748707 -11.76274,19.874968 -27.17598,21.497415 -1.21684,0.202806 -2.23087,0.202806 -3.4477,0.202806 -0.60842,0 -1.41964,0 -2.02806,0 -0.40561,0 -0.60842,0 -1.01403,0 -17.644103,-0.405612 -31.840509,-9.937485 -31.840509,-21.903027 0,-1.622446 0.202806,-3.244893 0.811223,-4.664533 l -13.9936,-8.112232 -21.70022,12.979571 66.723106,38.533101 3.04209,1.82525 h 0.2028 l 3.2449,-1.82525 z"
       class="st0" />
    <path
       style="fill:#42ad52;stroke-width:2.02805805"
       inkscape:connector-curvature="0"
       id="path4318"
       d="m 35.491015,70.170806 v 77.066204 3.6505 l 3.244893,1.82526 18.860939,10.95151 V 146.8314 c -0.811223,-1.01403 -1.622446,-2.23087 -2.433669,-3.4477 -0.608418,-1.01403 -1.216835,-2.02806 -1.825253,-3.04209 -0.608417,-0.81122 -1.014029,-1.82525 -1.41964,-2.63647 -7.503815,-15.00763 -5.881368,-31.02929 3.85331,-36.70785 9.937484,-5.678565 24.539502,1.01403 33.868569,14.80482 0.608417,0.81122 1.014029,1.62245 1.622446,2.43367 0.608417,1.01403 1.216835,2.23086 1.622446,3.24489 7.301014,14.80483 5.678563,30.42087 -4.056116,36.09944 -0.608417,0.40561 -1.216834,0.60841 -2.028058,1.01402 v 21.70023 l 18.860938,10.95151 v -28.79843 -48.06497 -3.85331 l -3.24489,-1.82525 z"
       class="st0" />
    <path
       style="fill:#42ad52;stroke-width:2.02805805"
       inkscape:connector-curvature="0"
       id="path4320"
       d="m 127.36204,118.43859 c 0.40561,-0.60842 0.81123,-1.41964 1.21684,-2.02806 9.32907,-14.19641 24.1339,-21.091805 34.07138,-15.41324 1.41964,0.81122 2.83928,2.02806 3.85331,3.24489 L 181.714,95.521531 V 70.170806 l -66.52031,38.330294 -3.24489,1.82525 v 3.85331 48.06498 29.20403 l 66.52031,-38.33029 3.24489,-1.82525 v -3.85331 -24.13389 l -12.16834,7.0982 c -0.81123,2.63647 -1.82526,5.47575 -3.2449,8.11223 -0.40561,0.81122 -0.81122,1.41964 -1.21683,2.23086 -0.60842,1.21684 -1.41964,2.23087 -2.23086,3.4477 -9.32907,13.38519 -23.52548,19.67217 -33.26016,13.9936 -9.73468,-5.67856 -11.35713,-21.0918 -4.25893,-35.69382 0.60842,-1.62244 1.21684,-2.83928 2.02806,-4.05611 z"
       class="st0" />
    <path
       style="fill:#42ad52;stroke-width:2.02805805"
       inkscape:connector-curvature="0"
       id="path4322"
       d="m 242.96136,24.336695 h 55.56879 V 35.085402 H 255.1297 v 38.330296 h 42.99483 V 84.367212 H 255.1297 v 49.079008 h -12.16834 z"
       class="st0" />
    <path
       style="fill:#42ad52;stroke-width:2.02805805"
       inkscape:connector-curvature="0"
       id="path4324"
       d="m 391.61801,133.44622 h -10.95152 v -16.42727 c -6.28698,11.96554 -18.25252,18.65813 -32.44892,18.65813 -25.75634,0 -41.16958,-20.07778 -41.16958,-41.980802 0,-23.322667 17.03569,-41.9808 41.16958,-41.9808 17.03568,0 28.59561,9.937484 32.44892,18.860939 V 53.946342 h 10.95152 z M 317.9995,94.10189 c 0.20281,14.39921 9.93749,31.6377 31.84051,31.6377 13.9936,0 24.3367,-8.11223 28.59562,-19.26655 1.82525,-3.85331 2.63648,-8.315034 2.63648,-12.573956 0.2028,-4.461727 -0.81123,-8.923455 -2.43367,-12.776765 -4.46173,-10.951513 -15.00763,-19.063745 -29.00123,-19.063745 -18.45533,0 -31.63771,14.196406 -31.63771,32.043316 z"
       class="st0" />
    <path
       style="fill:#42ad52;stroke-width:2.02805805"
       inkscape:connector-curvature="0"
       id="path4326"
       d="m 410.68175,24.336695 h 10.95152 v 29.812452 16.021659 c 6.69259,-11.154319 18.65813,-18.049717 32.24612,-18.049717 22.51144,0 40.76396,17.035688 40.76396,41.777995 0,23.931086 -17.03568,41.980796 -41.16957,41.980796 -14.80483,0 -26.56756,-7.301 -32.44893,-18.65813 v 16.42727 h -10.5459 V 24.336695 Z m 73.01009,69.359583 c 0,-18.049716 -13.79079,-31.637704 -31.4349,-31.637704 -18.25252,0 -31.4349,14.196406 -31.4349,31.637704 0,17.238492 12.57396,31.840512 31.02929,31.840512 21.0918,0 31.84051,-16.42727 31.84051,-31.840512 z"
       class="st0" />
    <path
       style="stroke:#000000;stroke-width:2.02805805;stroke-miterlimit:10"
       inkscape:connector-curvature="0"
       id="path4328"
       d="m 510.0566,24.336695 h 4.46172 V 129.3901 h 46.23973 v 4.05612 H 510.2594 V 24.336695 Z"
       class="st1" />
    <path
       style="stroke:#000000;stroke-width:2.02805805;stroke-miterlimit:10"
       inkscape:connector-curvature="0"
       id="path4330"
       d="m 641.27195,133.44622 h -4.05612 v -20.28058 c -7.0982,13.9936 -20.07777,22.10583 -36.50504,22.10583 -25.75634,0 -41.16958,-19.87497 -41.16958,-40.966774 0,-21.497415 16.02166,-40.966772 41.16958,-40.966772 18.86094,0 32.44893,11.559931 36.50504,22.511444 V 55.163176 h 4.05612 z M 563.59733,94.507502 c 0.2028,17.644108 12.16834,37.113458 37.51907,37.113458 16.63007,0 29.40684,-10.14029 34.27418,-24.33669 1.62245,-4.25892 2.43367,-8.923458 2.23086,-13.790797 0,-4.664534 -0.81122,-9.531873 -2.63647,-13.587989 -5.27295,-13.587989 -18.45533,-22.71425 -34.27418,-22.71425 -20.48339,0 -37.11346,15.210435 -37.11346,37.316268 z"
       class="st1" />
    <path
       style="stroke:#000000;stroke-width:2.02805805;stroke-miterlimit:10"
       inkscape:connector-curvature="0"
       id="path4332"
       d="m 661.34972,24.336695 h 4.05612 v 31.029287 20.686192 c 5.67856,-12.168348 17.6441,-22.308638 36.50504,-22.511444 25.14792,0 41.16958,19.469357 41.16958,40.966772 0,21.091798 -15.41324,40.966768 -41.16958,40.966768 -16.42727,0 -29.40684,-8.11223 -36.50504,-22.10583 v 20.28058 h -4.05612 z m 77.67462,69.968001 c 0,-21.903027 -16.63007,-37.113462 -37.11346,-37.113462 -20.889,0 -37.11346,15.818853 -37.11346,37.113462 0,20.280584 15.00763,37.113464 36.50504,37.113464 25.55354,0.2028 37.51908,-19.26655 37.72188,-37.113464 z"
       class="st1" />
    <g
       id="g4334"
       transform="matrix(2.028058,0,0,2.028058,-50.295838,-686.70043)">
      <path
         style="fill:#42ad52"
         inkscape:connector-curvature="0"
         id="path4336"
         d="m 165.5,428.1 c -1.6,2.7 -5.3,5.5 -10.1,5.5 -6.7,0 -12.1,-5.1 -12.1,-12 0,-7 5.4,-12 12.1,-12 5,0 8.5,3 10.2,5.6 h -1.1 c -0.9,-1.2 -3.9,-4.7 -9.1,-4.7 -6.2,0 -11.1,4.7 -11.1,11.2 0,6.4 5,11.2 11.1,11.2 5.4,0 8.4,-3.7 9.1,-4.6 h 1 z"
         class="st0" />
      <path
         style="fill:#42ad52"
         inkscape:connector-curvature="0"
         id="path4338"
         d="m 185.1,433.1 h -0.9 v -4.3 c -1.5,3 -4.3,4.7 -7.8,4.7 -5.5,0 -8.8,-4.2 -8.8,-8.7 0,-4.6 3.4,-8.7 8.8,-8.7 4,0 6.9,2.5 7.8,4.8 v -4.4 h 0.9 z m -16.5,-8.3 c 0,3.7 2.6,7.9 8,7.9 3.6,0 6.3,-2.2 7.3,-5.2 0.3,-0.9 0.5,-1.9 0.5,-2.9 0,-1 -0.2,-2 -0.6,-2.9 -1.1,-2.9 -3.9,-4.8 -7.3,-4.8 -4.4,0 -7.9,3.2 -7.9,7.9 z"
         class="st0" />
      <path
         style="fill:#42ad52"
         inkscape:connector-curvature="0"
         id="path4340"
         d="m 189.7,416.5 h 0.9 v 3.2 c 1.6,-3.3 4.4,-3.5 5.9,-3.6 v 0.8 h -0.3 c -3.6,0 -5.6,2.6 -5.6,7.1 v 9.1 h -0.9 z"
         class="st0" />
      <path
         style="fill:#42ad52"
         inkscape:connector-curvature="0"
         id="path4342"
         d="m 214,433.1 h -0.9 v -4.3 c -1.5,3 -4.3,4.7 -7.8,4.7 -5.5,0 -8.8,-4.2 -8.8,-8.7 0,-4.6 3.4,-8.7 8.8,-8.7 4,0 6.9,2.5 7.8,4.8 v -4.4 -6.6 h 0.9 z m -16.6,-8.3 c 0,3.7 2.6,7.9 8,7.9 2.2,0 4.2,-0.9 5.6,-2.3 1.4,-1.4 2.3,-3.5 2.2,-5.7 0,-2.2 -0.8,-4.2 -2.3,-5.6 -1.4,-1.4 -3.4,-2.3 -5.6,-2.3 -4.3,0.1 -7.9,3.3 -7.9,8 z"
         class="st0" />
      <path
         style="fill:#42ad52"
         inkscape:connector-curvature="0"
         id="path4344"
         d="m 218.6,409.9 h 0.9 v 2.9 h -0.9 z m 0,6.6 h 0.9 v 16.7 h -0.9 z"
         class="st0" />
      <path
         style="fill:#42ad52"
         inkscape:connector-curvature="0"
         id="path4346"
         d="m 224.6,417.3 h -2.7 v -0.8 h 2.7 v -1.7 c 0,-5.3 4.3,-5.3 5.2,-5.3 v 0.8 c -1.3,0.1 -4.3,0.1 -4.3,4.7 v 1.4 h 4.3 v 0.8 h -4.3 V 433 h -0.9 z"
         class="st0" />
      <path
         style="fill:#42ad52"
         inkscape:connector-curvature="0"
         id="path4348"
         d="m 233.8,417.3 h -2.7 v -0.8 h 2.7 v -1.7 c 0,-5.3 4.3,-5.3 5.2,-5.3 v 0.8 c -1.3,0.1 -4.3,0.1 -4.3,4.7 v 1.4 h 4.3 v 0.8 h -4.3 V 433 h -0.9 z"
         class="st0" />
    </g>
    <g
       id="g4350"
       transform="matrix(2.028058,0,0,2.028058,-50.295838,-686.70043)">
      <path
         style="fill:#42ad52"
         inkscape:connector-curvature="0"
         id="path4352"
         d="m 267.1,428 c -1.5,2.6 -5.2,5.4 -10,5.4 -6.6,0 -11.9,-5 -11.9,-11.8 0,-6.9 5.3,-11.8 11.9,-11.8 4.9,0 8.4,2.9 10,5.5 H 266 c -0.9,-1.2 -3.9,-4.6 -8.9,-4.7 -6.1,0 -10.9,4.7 -10.9,11 0,6.3 4.9,11 10.9,11 5.4,0 8.3,-3.6 8.9,-4.5 h 1.1 z"
         class="st0" />
      <path
         style="fill:#42ad52"
         inkscape:connector-curvature="0"
         id="path4354"
         d="m 286.4,432.9 h -0.9 v -4.2 c -1.5,2.9 -4.2,4.6 -7.7,4.6 -5.4,0 -8.6,-4.2 -8.6,-8.6 0,-4.5 3.3,-8.6 8.6,-8.6 4,0 6.8,2.4 7.7,4.7 v -4.3 h 0.9 z m -16.3,-8.1 c 0,3.7 2.6,7.8 7.9,7.8 3.5,0 6.2,-2.1 7.2,-5.1 0.3,-0.9 0.5,-1.9 0.5,-2.9 0,-1 -0.2,-2 -0.6,-2.8 -1.1,-2.8 -3.9,-4.8 -7.2,-4.8 -4.3,-0.1 -7.8,3.1 -7.8,7.8 z"
         class="st0" />
      <path
         style="fill:#42ad52"
         inkscape:connector-curvature="0"
         id="path4356"
         d="m 290.6,424.8 c 0.1,5.4 4.5,7.7 7.8,7.7 3,0 5.7,-1.5 7,-4.3 h 1 c -0.7,1.7 -1.9,3 -3.3,3.9 -1.4,0.8 -3,1.2 -4.7,1.2 -6.2,0 -8.6,-4.9 -8.6,-8.6 0,-4.9 3.8,-8.6 8.7,-8.6 2.2,0 4.3,0.8 5.9,2.2 1.8,1.6 2.8,4.1 2.7,6.5 z m 15.5,-0.8 c -0.2,-4 -3.9,-7.2 -7.7,-7.1 -4.1,0 -7.5,2.9 -7.7,7.1 z"
         class="st0" />
      <path
         style="fill:#42ad52"
         inkscape:connector-curvature="0"
         id="path4358"
         d="m 310.1,416.5 h 0.9 v 3.1 c 1.5,-3.2 4.4,-3.4 5.8,-3.5 v 0.8 h -0.2 c -3.5,0 -5.5,2.5 -5.5,7 v 9 h -0.9 v -16.4 z"
         class="st0" />
      <path
         style="fill:#42ad52"
         inkscape:connector-curvature="0"
         id="path4360"
         d="m 334,432.9 h -0.9 v -4.2 c -1.5,2.9 -4.2,4.6 -7.7,4.6 -5.4,0 -8.6,-4.2 -8.6,-8.6 0,-4.5 3.3,-8.6 8.6,-8.6 4,0 6.8,2.4 7.7,4.7 v -4.3 -6.5 h 0.9 z m -16.3,-8.1 c 0,3.7 2.6,7.8 7.9,7.8 2.2,0 4.1,-0.9 5.5,-2.3 1.4,-1.4 2.2,-3.4 2.2,-5.6 0,-2.2 -0.8,-4.1 -2.2,-5.5 -1.4,-1.4 -3.3,-2.2 -5.5,-2.2 -4.4,-0.1 -7.9,3.1 -7.9,7.8 z"
         class="st0" />
      <path
         style="fill:#42ad52"
         inkscape:connector-curvature="0"
         id="path4362"
         d="m 343.1,432.9 -6.5,-16.4 h 1 l 6.1,15.2 6.5,-15.2 h 1 l -9.9,23 h -1 z"
         class="st0" />
      <path
         style="fill:#42ad52"
         inkscape:connector-curvature="0"
         id="path4364"
         d="m 368.7,432.9 h -0.9 v -4.2 c -1.5,2.9 -4.2,4.6 -7.7,4.6 -5.4,0 -8.6,-4.2 -8.6,-8.6 0,-4.5 3.3,-8.6 8.6,-8.6 4,0 6.8,2.4 7.7,4.7 v -4.3 -6.5 h 0.9 z m -16.3,-8.1 c 0,3.7 2.6,7.8 7.9,7.8 2.2,0 4.1,-0.9 5.5,-2.3 1.4,-1.4 2.2,-3.4 2.2,-5.6 0,-2.2 -0.8,-4.1 -2.2,-5.5 -1.4,-1.4 -3.3,-2.2 -5.5,-2.2 -4.4,-0.1 -7.9,3.1 -7.9,7.8 z"
         class="st0" />
      <path
         style="fill:#42ad52"
         inkscape:connector-curvature="0"
         id="path4366"
         d="m 389.4,432.9 h -0.9 v -4.2 c -1.5,2.9 -4.2,4.6 -7.7,4.6 -5.4,0 -8.6,-4.2 -8.6,-8.6 0,-4.5 3.3,-8.6 8.6,-8.6 4,0 6.8,2.4 7.7,4.7 v -4.3 -6.5 h 0.9 z m -16.3,-8.1 c 0,3.7 2.6,7.8 7.9,7.8 2.2,0 4.1,-0.9 5.5,-2.3 1.4,-1.4 2.2,-3.4 2.2,-5.6 0,-2.2 -0.8,-4.1 -2.2,-5.5 -1.4,-1.4 -3.3,-2.2 -5.5,-2.2 -4.4,-0.1 -7.9,3.1 -7.9,7.8 z"
         class="st0" />
    </g>
  </g>
</svg>
