<?xml version="1.0" encoding="UTF-8" standalone="no"?>
<!-- Created with Inkscape (http://www.inkscape.org/) -->

<svg
   xmlns:dc="http://purl.org/dc/elements/1.1/"
   xmlns:cc="http://creativecommons.org/ns#"
   xmlns:rdf="http://www.w3.org/1999/02/22-rdf-syntax-ns#"
   xmlns:svg="http://www.w3.org/2000/svg"
   xmlns="http://www.w3.org/2000/svg"
   xmlns:sodipodi="http://sodipodi.sourceforge.net/DTD/sodipodi-0.dtd"
   xmlns:inkscape="http://www.inkscape.org/namespaces/inkscape"
   width="217.40784"
   height="217.40782"
   viewBox="0 0 217.40784 217.40782"
   id="svg6127"
   version="1.1"
   inkscape:version="0.92.1 r15371"
   sodipodi:docname="logo-small.svg">
  <defs
     id="defs6129" />
  <sodipodi:namedview
     id="base"
     pagecolor="#ffffff"
     bordercolor="#666666"
     borderopacity="1.0"
     inkscape:pageopacity="0.0"
     inkscape:pageshadow="2"
     inkscape:zoom="0.7"
     inkscape:cx="419.6394"
     inkscape:cy="111.30344"
     inkscape:document-units="px"
     inkscape:current-layer="layer1"
     showgrid="false"
     inkscape:snap-bbox="true"
     inkscape:snap-page="true"
     inkscape:bbox-nodes="true"
     units="px"
     fit-margin-top="0"
     fit-margin-left="0"
     fit-margin-right="0"
     fit-margin-bottom="0"
     inkscape:window-width="2558"
     inkscape:window-height="1059"
     inkscape:window-x="0"
     inkscape:window-y="19"
     inkscape:window-maximized="1" />
  <metadata
     id="metadata6132">
    <rdf:RDF>
      <cc:Work
         rdf:about="">
        <dc:format>image/svg+xml</dc:format>
        <dc:type
           rdf:resource="http://purl.org/dc/dcmitype/StillImage" />
        <dc:title></dc:title>
      </cc:Work>
    </rdf:RDF>
  </metadata>
  <g
     inkscape:label="Layer 1"
     inkscape:groupmode="layer"
     id="layer1"
     transform="translate(-2.4207978e-8,1.1178199e-6)">
    <path
       style="fill:#42ad52;stroke-width:2.02805805"
       inkscape:connector-curvature="0"
       id="path4314"
       d="m 108.70391,9.9374831 c 54.55477,0 98.76643,44.2116639 98.76643,98.7664269 0,54.55476 -44.21166,98.76642 -98.76643,98.76642 -54.554761,0 -98.7664258,-44.21166 -98.7664258,-98.76642 0,-54.554763 44.2116648,-98.7664269 98.7664258,-98.7664269 m 0,-9.9374842178199 C 48.876198,-1.1178199e-6 2.4207978e-8,48.673391 2.4207978e-8,108.70391 2.4207978e-8,168.53162 48.673392,217.40782 108.70391,217.40782 c 60.03052,0 108.70392,-48.6734 108.70392,-108.70391 C 217.20502,48.876197 168.53163,-1.1178199e-6 108.70391,-1.1178199e-6 Z"
       class="st0" />
    <path
       style="fill:#42ad52;stroke-width:2.02805805"
       inkscape:connector-curvature="0"
       id="path4316"
       d="m 178.67192,64.695049 c 0,0 0,0 0,0 l -66.52031,-38.330296 -3.4477,-2.028058 v 0 l -3.04209,1.825252 -21.294607,12.168348 10.748707,6.084174 c 3.244893,-0.811223 6.8954,-1.216835 10.5459,-1.419641 0.40561,0 0.60842,0 1.01403,0 0.60842,0 1.41964,0 2.02806,0 1.21683,0 2.23086,0.202806 3.4477,0.202806 15.41324,1.825252 27.17598,10.748708 27.17598,21.497415 0,10.748707 -11.76274,19.874968 -27.17598,21.497415 -1.21684,0.202806 -2.23087,0.202806 -3.4477,0.202806 -0.60842,0 -1.41964,0 -2.02806,0 -0.40561,0 -0.60842,0 -1.01403,0 -17.644103,-0.405612 -31.840509,-9.937485 -31.840509,-21.903027 0,-1.622446 0.202806,-3.244893 0.811223,-4.664533 l -13.9936,-8.112232 -21.70022,12.979571 66.723106,38.533101 3.04209,1.82525 h 0.2028 l 3.2449,-1.82525 z"
       class="st0" />
    <path
       style="fill:#42ad52;stroke-width:2.02805805"
       inkscape:connector-curvature="0"
       id="path4318"
       d="m 35.491015,70.170806 v 77.066204 3.6505 l 3.244893,1.82526 18.860939,10.95151 V 146.8314 c -0.811223,-1.01403 -1.622446,-2.23087 -2.433669,-3.4477 -0.608418,-1.01403 -1.216835,-2.02806 -1.825253,-3.04209 -0.608417,-0.81122 -1.014029,-1.82525 -1.41964,-2.63647 -7.503815,-15.00763 -5.881368,-31.02929 3.85331,-36.70785 9.937484,-5.678565 24.539502,1.01403 33.868569,14.80482 0.608417,0.81122 1.014029,1.62245 1.622446,2.43367 0.608417,1.01403 1.216835,2.23086 1.622446,3.24489 7.301014,14.80483 5.678563,30.42087 -4.056116,36.09944 -0.608417,0.40561 -1.216834,0.60841 -2.028058,1.01402 v 21.70023 l 18.860938,10.95151 v -28.79843 -48.06497 -3.85331 l -3.24489,-1.82525 z"
       class="st0" />
    <path
       style="fill:#42ad52;stroke-width:2.02805805"
       inkscape:connector-curvature="0"
       id="path4320"
       d="m 127.36204,118.43859 c 0.40561,-0.60842 0.81123,-1.41964 1.21684,-2.02806 9.32907,-14.19641 24.1339,-21.091805 34.07138,-15.41324 1.41964,0.81122 2.83928,2.02806 3.85331,3.24489 L 181.714,95.521531 V 70.170806 l -66.52031,38.330294 -3.24489,1.82525 v 3.85331 48.06498 29.20403 l 66.52031,-38.33029 3.24489,-1.82525 v -3.85331 -24.13389 l -12.16834,7.0982 c -0.81123,2.63647 -1.82526,5.47575 -3.2449,8.11223 -0.40561,0.81122 -0.81122,1.41964 -1.21683,2.23086 -0.60842,1.21684 -1.41964,2.23087 -2.23086,3.4477 -9.32907,13.38519 -23.52548,19.67217 -33.26016,13.9936 -9.73468,-5.67856 -11.35713,-21.0918 -4.25893,-35.69382 0.60842,-1.62244 1.21684,-2.83928 2.02806,-4.05611 z"
       class="st0" />
  </g>
</svg>
